<svg width="100" height="100" viewBox="0 0 100 100" fill="none" xmlns="http://www.w3.org/2000/svg">
  <!-- Rounded square background -->
  <rect x="5" y="5" width="90" height="90" rx="20" ry="20" fill="#2563EB"/>
  
  <!-- Letter B - perfectly centered -->
  <path d="M37 30 L37 70 L62 70 C68 70 73 65 73 59 C73 55 71 52 68 50.5 C71 49 73 46 73 41 C73 35 68 30 62 30 L37 30 Z
           M45 37 L59 37 C62 37 64 39 64 41.5 C64 44 62 46 59 46 L45 46 L45 37 Z
           M45 54 L60 54 C63.5 54 65 55.5 65 58.5 C65 61.5 63.5 63 60 63 L45 63 L45 54 Z" 
        fill="white"/>
</svg> 